<svg xmlns:mydata="http://www.w3.org/2000/svg" mydata:contrastcolor="050241" mydata:template="Contrast" mydata:presentation="2.5" mydata:layouttype="undefined" mydata:specialfontid="undefined" mydata:id1="772" mydata:id2="651" mydata:companyname="exchange" mydata:companytagline="" version="1.1" xmlns="http://www.w3.org/2000/svg" xmlns:xlink="http://www.w3.org/1999/xlink" viewBox="0 0 550 470">
  <g fill="#c1a01e" fill-rule="nonzero" stroke="none" stroke-width="1" stroke-linecap="butt" stroke-linejoin="miter" stroke-miterlimit="10" stroke-dasharray="" stroke-dashoffset="0" font-family="none" font-weight="none" font-size="none" text-anchor="none" style="mix-blend-mode:normal">
    <g data-paper-data="{&quot;isGlobalGroup&quot;:true,&quot;bounds&quot;:{&quot;x&quot;:64.99999999999999,&quot;y&quot;:205.6809282763697,&quot;width&quot;:420.00000000000006,&quot;height&quot;:58.6381434472606}}">
      <g data-paper-data="{&quot;isPrimaryText&quot;:true}">
        <path d="M201.14915,258.14664v-13.49814h-26.46026v-6.33487h19.83301v-6.62725h-19.83301v-6.33487h26.46026v-6.62725h-33.08751v32.50275h28.79929z" data-paper-data="{&quot;glyphName&quot;:&quot;E&quot;,&quot;glyphIndex&quot;:0,&quot;firstGlyphOfWord&quot;:true,&quot;word&quot;:1}" id="path-id-77517" fill="#ffffff"/>
        <path d="M245.54196,258.14664l-14.42401,-23.14664l10.13579,-16.27574h-7.79676l-8.04041,12.96212h-1.41316l-12.32863,-19.83301h-7.79676l14.37528,23.14664l-10.08706,16.22701h7.79676l8.04041,-12.91339h1.41316l12.32863,19.83301z" data-paper-data="{&quot;glyphName&quot;:&quot;X&quot;,&quot;glyphIndex&quot;:1,&quot;word&quot;:1}" id="path-id-71284" fill="#ffffff"/>
        <path d="M268.2013,251.22701c5.50646,0 9.94087,-4.43441 9.94087,-9.94087h-6.62725c0,1.85173 -1.46189,3.31362 -3.31362,3.31362h-13.25449c-1.803,0 -3.31362,-1.46189 -3.31362,-3.31362v-12.66974c0,-1.803 1.51062,-3.31362 3.31362,-3.31362h16.56812v9.64849h0.04873l6.57852,-10.62309v-5.60392h-23.19537c-5.50646,0 -9.94087,4.43441 -9.94087,9.89214v12.66974c0,5.50646 4.43441,9.94087 9.94087,9.94087z" data-paper-data="{&quot;glyphName&quot;:&quot;C&quot;,&quot;glyphIndex&quot;:2,&quot;word&quot;:1}" id="path-id-64897" fill="#ffffff"/>
        <path d="M319.02644,258.14664v-39.42238h-6.62725v12.96212h-19.83301v-12.96212h-6.62725v32.50275h6.62725v-12.91339h19.83301v9.16119z" data-paper-data="{&quot;glyphName&quot;:&quot;H&quot;,&quot;glyphIndex&quot;:3,&quot;word&quot;:1}" id="path-id-572" fill="#ffffff"/>
        <path d="M366.34304,251.22701l-20.22285,-32.50275l-20.27158,32.50275h15.59352l4.14203,-6.62725h-7.79676l8.33279,-13.35195l12.42609,19.9792z" data-paper-data="{&quot;glyphName&quot;:&quot;A&quot;,&quot;glyphIndex&quot;:4,&quot;word&quot;:1}" id="path-id-84970" fill="#ffffff"/>
        <path d="M403.23146,258.14664v-39.42238h-6.62725v23.43901l-23.43901,-23.43901v32.50275h6.62725v-16.51939z" data-paper-data="{&quot;glyphName&quot;:&quot;N&quot;,&quot;glyphIndex&quot;:5,&quot;word&quot;:1}" id="path-id-69524" fill="#ffffff"/>
        <path d="M444.11573,258.14664v-26.46026h-13.25449v6.62725h6.62725v6.33487h-16.51939c-1.85173,0 -3.31362,-1.51062 -3.31362,-3.31362v-12.66974c0,-1.85173 1.46189,-3.31362 3.31362,-3.31362h13.20576c1.803,0 3.31362,1.46189 3.31362,3.31362h6.62725c0,-5.50646 -4.48314,-9.94087 -9.94087,-9.94087h-13.20576c-5.50646,0 -9.94087,4.43441 -9.94087,9.94087v12.66974c0,5.45773 4.43441,9.89214 9.94087,9.89214h18.85842z" data-paper-data="{&quot;glyphName&quot;:&quot;G&quot;,&quot;glyphIndex&quot;:6,&quot;word&quot;:1}" id="path-id-99303" fill="#ffffff"/>
        <path d="M485,258.14664v-13.49814h-26.46026v-6.33487h19.83301v-6.62725h-19.83301v-6.33487h26.46026v-6.62725h-33.08751v32.50275h28.79929z" data-paper-data="{&quot;glyphName&quot;:&quot;E&quot;,&quot;glyphIndex&quot;:7,&quot;lastGlyphOfWord&quot;:true,&quot;word&quot;:1}" id="path-id-39545" fill="#ffffff"/>
      </g>
      <g data-paper-data="{&quot;fillRule&quot;:&quot;nonzero&quot;,&quot;isIcon&quot;:&quot;true&quot;,&quot;iconStyle&quot;:&quot;standalone&quot;,&quot;selectedEffects&quot;:{&quot;container&quot;:&quot;&quot;,&quot;transformation&quot;:&quot;&quot;,&quot;pattern&quot;:&quot;&quot;},&quot;bounds&quot;:{&quot;x&quot;:64.99999999999999,&quot;y&quot;:205.6809282763697,&quot;width&quot;:79.95400282202742,&quot;height&quot;:58.6381434472606},&quot;iconType&quot;:&quot;initial&quot;,&quot;initialText&quot;:&quot;D&quot;,&quot;rawInitialId&quot;:&quot;890&quot;,&quot;suitableAsStandaloneIcon&quot;:true}">
        <path d="M72.99019,243.00321v0c2.21226,0 4.08619,-0.7808 5.64779,-2.3424c1.5616,-1.5616 2.3424,-3.43553 2.3424,-5.64779c0,-2.21226 -0.7808,-4.08619 -2.3424,-5.64779c-1.5616,-1.58763 -3.43553,-2.36843 -5.64779,-2.36843c-2.21226,0 -4.08619,0.7808 -5.64779,2.36843c-1.5616,1.5616 -2.3424,3.43553 -2.3424,5.64779c0,2.21226 0.7808,4.08619 2.3424,5.64779c1.5616,1.5616 3.43553,2.3424 5.64779,2.3424zM72.99019,264.31907h53.30267c5.15328,0 9.55179,-1.82187 13.19554,-5.4656c3.64374,-3.64374 5.4656,-8.04224 5.4656,-13.19554v-21.31586c0,-5.12725 -1.82187,-9.52577 -5.4656,-13.19554c-3.64374,-3.64374 -8.04224,-5.4656 -13.19554,-5.4656h-53.30267c-2.08213,0 -3.95605,0.91093 -5.64779,2.75883c-1.5616,1.71776 -2.3424,3.46154 -2.3424,5.23136c0,2.21226 0.7808,4.08619 2.3424,5.67382c1.5616,1.5616 3.43553,2.3424 5.64779,2.3424h53.30267c0.75477,0 1.37941,0.26027 1.87393,0.7808c0.54656,0.52054 0.80682,1.14517 0.80682,1.87393v21.31586c0,0.75477 -0.26027,1.37941 -0.80682,1.87393c-0.49451,0.54656 -1.11915,0.80682 -1.87392,0.80682h-53.30267c-2.08213,0 -3.95605,0.91093 -5.64779,2.7328c-1.5616,1.71776 -2.3424,3.46154 -2.3424,5.25739c0,2.21226 0.7808,4.08619 2.3424,5.64779c1.5616,1.5616 3.43553,2.3424 5.64779,2.3424z" data-paper-data="{&quot;isPathIcon&quot;:true}" id="path-id-16818" fill="#ffffff"/>
      </g>
    </g>
  </g>
  <rect data-path-id="path-id-16818" class="invisible-bbox" x="65" y="206" fill="transparent" width="80" height="59"/>
  <rect data-path-id="path-id-71284" class="invisible-bbox" x="204" y="212" fill="transparent" width="42" height="46"/>
  <rect data-path-id="path-id-84970" class="invisible-bbox" x="326" y="219" fill="transparent" width="40" height="33"/>
  <rect data-path-id="path-id-77517" class="invisible-bbox" x="168" y="219" fill="transparent" width="33" height="39"/>
  <rect data-path-id="path-id-572" class="invisible-bbox" x="286" y="219" fill="transparent" width="33" height="39"/>
  <rect data-path-id="path-id-99303" class="invisible-bbox" x="411" y="219" fill="transparent" width="33" height="39"/>
  <rect data-path-id="path-id-39545" class="invisible-bbox" x="452" y="219" fill="transparent" width="33" height="39"/>
  <rect data-path-id="path-id-69524" class="invisible-bbox" x="373" y="219" fill="transparent" width="30" height="39"/>
  <rect data-path-id="path-id-64897" class="invisible-bbox" x="245" y="219" fill="transparent" width="33" height="33"/>
</svg>
